<?xml version="1.0" encoding="UTF-8" standalone="no"?>
<svg
   width="128"
   height="128"
   version="1.1"
   id="svg6"
   sodipodi:docname="ball.svg"
   inkscape:version="1.4 (86a8ad7, 2024-10-11)"
   xml:space="preserve"
   xmlns:inkscape="http://www.inkscape.org/namespaces/inkscape"
   xmlns:sodipodi="http://sodipodi.sourceforge.net/DTD/sodipodi-0.dtd"
   xmlns="http://www.w3.org/2000/svg"
   xmlns:svg="http://www.w3.org/2000/svg"><defs
     id="defs6" /><sodipodi:namedview
     id="namedview6"
     pagecolor="#505050"
     bordercolor="#eeeeee"
     borderopacity="1"
     inkscape:showpageshadow="0"
     inkscape:pageopacity="0"
     inkscape:pagecheckerboard="0"
     inkscape:deskcolor="#505050"
     inkscape:zoom="2.8284271"
     inkscape:cx="14.318912"
     inkscape:cy="104.47503"
     inkscape:window-width="1920"
     inkscape:window-height="1009"
     inkscape:window-x="-8"
     inkscape:window-y="-8"
     inkscape:window-maximized="1"
     inkscape:current-layer="svg6" /><rect
     width="124"
     height="124"
     x="2"
     y="2"
     fill="#363d52"
     stroke="#212532"
     stroke-width="4"
     rx="62"
     id="rect1"
     inkscape:label="rect1"
     style="fill:#ffffff;fill-opacity:1" /><g
     id="g1"
     transform="matrix(0.06491929,0,0,0.06487414,-55.312561,-18.021977)"><path
       fill-rule="nonzero"
       fill="#000000"
       fill-opacity="1"
       d="m 2228.6914,1060.3594 c -3.5117,2.7304 -7.043,5.4804 -10.582,8.25 -4.0313,-2.3789 -8.0508,-4.75 -12.0586,-7.0977 l -0.031,0.01 -2.3711,401.9024 c 3.8125,-2.4219 7.6133,-4.8438 11.4024,-7.2735 l 11.3008,8.7305 2.3593,-404.5195 z m 550.3789,-0.8985 c -22.9414,18.3594 -40.1015,35.5196 -51.4922,51.4883 4.6407,65.4922 6.8907,115.3008 6.7735,149.4492 0.2773,30.7032 -1.3203,76.4532 -4.793,137.2618 -0.01,0.012 -0.019,0.019 -0.027,0.031 -0.3399,6.3203 -0.7227,12.7969 -1.1211,19.4375 2.039,2.9805 4.3086,6.0508 6.8398,9.1914 10.4492,12.9688 25.1094,27.2891 43.9805,42.9414 14.4414,-66.7304 21.9609,-136.0312 21.7695,-207.1015 -0.1797,-69.5508 -7.7305,-137.3594 -21.9102,-202.6993 z M 2476.4102,871.05859 c 1.7382,3.5 3.5,7.04297 5.2695,10.6211 -5.1289,3.1914 -10.3008,6.42968 -15.5078,9.73047 55.6562,33.35156 108.9765,67.33984 153.3164,106.91015 42.0234,37.50779 76.1601,80.21099 108.9219,124.60939 -0.2696,-3.9297 -0.5508,-7.9297 -0.8321,-11.9805 3.0625,-4.289 6.543,-8.6601 10.4336,-13.1289 -30.6015,-40.8515 -63.5234,-80.8398 -103.4023,-116.44139 -46.3086,-41.32813 -101.8008,-76.55079 -158.1797,-110.32032 z m -617.0704,-347.48047 -1.2382,24.38282 c -3.4727,87.89062 -14.4024,186.39062 -32.7813,295.50781 114.3399,63.21094 245.2695,138.25 392.7891,225.14065 96.9922,-75.75784 184.8515,-138.07034 263.5703,-186.92971 -50.8711,-102.62891 -88.2383,-172.85157 -112.0703,-210.64063 -24.1289,-40.21094 -58.7188,-87 -103.7578,-140.36719 -88.7422,-12.35156 -155.7305,-18.65234 -200.9805,-18.91015 -45.0898,-1.3125 -113.6016,2.6289 -205.5313,11.8164 m 455.5118,-95.72656 -61.8008,101.0586 c 4.2187,0.57031 8.4883,1.16015 12.8008,1.76171 2.4882,2.9375 4.9375,5.86719 7.3672,8.76954 l 61.2109,-100.10157 c -6.4609,-3.91015 -12.9805,-7.73828 -19.5586,-11.48828 z m -769.9102,-19.24219 c -0.7812,2.51172 -1.582,4.94922 -2.4023,7.32032 L 1540.6016,422 c -5.1407,2.19141 -10.1719,4.35937 -15.1016,6.51172 64.8594,10.14844 127.9688,21.53906 185.0313,41.23828 52.8085,18.23828 100.6601,43.67187 147.9296,71.03125 l 0.8789,-17.20313 c 4.2383,-0.41796 8.4297,-0.83984 12.5704,-1.23828 -48.3516,-28.07031 -98.4297,-54.87109 -153.9688,-74.05078 -54.1523,-18.69922 -113.3008,-30.07031 -173,-39.67969 z m 11.8789,-65.25 c -137.8203,42 -262.5,114.07032 -366.4219,208.53907 16.3204,10.10156 36.043,17.85156 59.1602,23.27343 v 0.008 c 0,-0.008 0,-0.008 0,-0.008 4.6016,1.07813 9.3203,2.0586 14.1797,2.94922 4.0625,-2.72265 8.0508,-5.39062 11.9805,-8.01172 0,0 0,0 0,-0.008 l 0.012,0.008 c 62.8789,-41.96875 108.6211,-70.84765 137.2187,-86.64062 31.1289,-17.91797 73.6797,-38.41016 127.6524,-61.46875 l 1.9375,-6.07031 c 6.6718,-19.1211 11.4414,-43.3086 14.289,-72.57032 z m -281.1094,226.75 c -3.9218,2.6211 -7.9101,5.28907 -11.9726,8.01172 -4.8477,-0.89062 -9.5781,-1.87109 -14.168,-2.9414 -22.4414,59.98047 -42.9297,120.14843 -53.4687,178.39843 -10.2813,56.76172 -11.0899,111.48047 -9.6407,165.11329 2.0274,-2.91016 4.0977,-5.83204 6.1797,-8.79297 5.5,2.60156 11,5.17968 16.5,7.74218 -1.4101,-52.83203 -0.5703,-105.51953 9.3008,-160.01953 10.9492,-60.4414 33.0391,-123.40234 57.2891,-187.51172 z m 551.7305,260.57032 c -144.9219,82.8789 -283.2109,161.99218 -349.0312,199.99221 4.0781,1.5195 8.1601,3.039 12.2382,4.5469 l -0.6679,14.9804 c 65.789,-37.9687 203.6601,-116.84764 348.2695,-199.55858 -4.3203,-2.41015 -8.6406,-4.80078 -12.9297,-7.17187 0.7188,-4.27734 1.4297,-8.53906 2.1289,-12.78906 z m -634.8008,79.21875 c -61.6914,87.57031 -103.1015,150.58206 -124.2304,189.03126 -22.8516,39.3906 -47.4297,93.1601 -73.7227,161.2812 36.0313,90.5586 65.2344,155.2891 87.6016,194.1797 21.5898,40.0313 58.3203,93.6875 110.1992,160.9727 103.6211,-47.5117 201.7109,-90.9219 294.2617,-130.2344 -5.2305,-145.2383 -4.4609,-283.2305 2.2891,-413.9687 l 1.6093,-35.9414 c -100.1171,-37.01958 -199.457,-78.78911 -298.0078,-125.32036 z m -192.96482,337.49216 -124.60156,1.711 c -0.0898,6.0273 -0.12891,12.0703 -0.11328,18.1289 0.004,1.5195 0.0117,3.0508 0.0234,4.5781 l 123.65235,-1.6992 c -1.30469,-3.2696 -2.6211,-6.5703 -3.94922,-9.8985 1.67187,-4.332 3.33594,-8.6015 4.99609,-12.8203 z m 185.95312,359.0469 c 1.1406,65.1523 3.6406,130.1367 14.75,189.3164 10.5117,56.043 28.7109,106.6602 48.2227,155.582 5.9882,-1.2539 11.4882,-2.2148 16.4882,-2.8711 l 9.1719,5.836 c -21.1015,-52.1992 -40.6406,-104.5117 -51.5703,-162.7383 -10.6406,-56.6875 -13.1719,-119.2187 -14.3203,-183.4648 -5.2813,2.4101 -10.582,4.832 -15.8828,7.2656 -2.3086,-3.0039 -4.5977,-5.9766 -6.8477,-8.9258 z m 300.582,-137.3672 v 0.01 c 0.168,5.3438 0.3477,10.6914 0.5391,16.0508 -3.4687,1.4805 -6.9609,2.9609 -10.4492,4.4492 l 349.3711,202.1407 c -1.1016,-4.711 -2.2422,-9.3282 -3.4024,-13.8438 4.4414,-2.2187 8.8594,-4.4414 13.2813,-6.6641 l -349.332,-202.1406 z m 728.8399,-12.9219 24.168,18.6797 c 90.371,70.3203 168.5898,127.7149 234.6523,172.168 -54.0508,127.4336 -99.8203,214.1406 -137.332,260.125 -15.918,22.3437 -39.0508,52.5508 -69.3789,90.625 -93.0508,11.1641 -162.1797,16.7422 -207.3907,16.7266 -45.4414,0.9804 -112.289,-3.1446 -200.539,-12.3789 -4.4805,-137.6993 -16.8008,-245.7735 -36.961,-324.2188 141.5,-70.7656 272.4297,-144.6758 392.7813,-221.7266 m -356.4297,529.1797 c -43.043,20.2032 -113.3594,50.4571 -176.4219,71.1953 -56.0898,18.4454 -106.5586,29.4141 -156.2695,38.9336 3.75,1.8516 7.5508,3.7305 11.4219,5.6328 l 4.4687,14.4141 c 46.4688,-9.1094 94.5195,-19.9961 147.4688,-37.4141 66.6523,-21.9179 140.8828,-54.1171 183.9414,-74.5507 -4.6016,-0.4688 -9.2696,-0.9493 -14,-1.4453 -0.1914,-5.6368 -0.3907,-11.2266 -0.5899,-16.7657 z m -593.5313,-36.8633 c -5.0117,0.6563 -10.5117,1.6172 -16.5,2.875 -17.7109,3.7149 -39.6992,10.043 -65.9804,18.9883 105.1523,97.6875 232.1406,172.1524 372.8008,215.2657 -3.7696,-29.918 -8.1993,-52.9727 -13.3008,-69.1563 l -4.7578,-15.3477 c -3.8711,-1.9023 -7.6719,-3.7812 -11.4102,-5.6328 h -0.012 c -59.8086,-29.6171 -103.8281,-52.4375 -132.0703,-68.4726 -33.9688,-19.0938 -73.418,-43.0547 -118.3399,-71.8906 l -1.2382,-0.7891 h -0.02 c 0,-0.01 0,-0.01 0,-0.012 z M 1835.4414,301.67187 c 531.8672,-1.40234 964.1602,428.62891 965.5586,960.48833 1.3984,531.8554 -428.6211,964.1523 -960.4805,965.5507 -531.8593,1.4024 -964.16013,-428.6211 -965.55856,-960.4804 -1.40235,-531.85941 428.62886,-964.16019 960.48046,-965.55863 z m -0.051,-22.71093 c -544.4101,1.4375 -984.56638,443.92968 -983.13279,988.32816 1.4336,544.3984 443.92189,984.5586 988.32029,983.125 544.4024,-1.4336 984.5625,-443.918 983.1328,-988.3125 -1.4414,-544.41019 -443.9218,-984.57035 -988.3203,-983.14066 z m 439.1407,1709.52736 c -2.4102,3.0351 -4.8711,6.1172 -7.3711,9.2578 -4.2813,0.5117 -8.5118,1.0156 -12.6797,1.5039 l 61.0703,101.8984 c 6.5703,-3.7578 13.0898,-7.5898 19.5586,-11.4961 z m 454.9804,-590.7695 c -42.1133,50.75 -84.2617,100.25 -133,142.8007 -48.6211,42.4297 -104.0429,78.1524 -135.7812,97.586 4.4414,3.0195 8.8203,5.9843 13.1406,8.8906 -1.8711,4.4141 -3.7305,8.7812 -5.582,13.0977 31.1992,-18.9571 90.832,-56.8008 143.1523,-102.4727 45.5469,-39.7617 85.3477,-85.2813 123.7969,-131.293 -2.5195,-3.1484 -4.7891,-6.2187 -6.8281,-9.1992 0.3984,-6.6289 0.7695,-13.0976 1.1211,-19.4101 z m 0,0"
       id="path2-9" /></g></svg>
